<svg width="161" height="56" viewBox="0 0 161 56" fill="none" xmlns="http://www.w3.org/2000/svg">
<rect width="161" height="56" rx="28" fill="#31D66C"/>
<path d="M41.125 29.025H36.025V34.125C36.025 34.6911 35.5661 35.15 35 35.15C34.4339 35.15 33.975 34.6911 33.975 34.125V29.025H28.875C28.3089 29.025 27.85 28.5661 27.85 28C27.85 27.4339 28.3089 26.975 28.875 26.975H33.975V21.875C33.975 21.3089 34.4339 20.85 35 20.85C35.5661 20.85 36.025 21.3089 36.025 21.875V26.975H41.125C41.6911 26.975 42.15 27.4339 42.15 28C42.15 28.5661 41.6911 29.025 41.125 29.025Z" fill="white" stroke="white" stroke-width="0.3"/>
<path d="M58.3801 35L62.6945 21.3155H66.0491L70.3636 35H68.0068L64.0915 22.722H64.6047L60.7369 35H58.3801ZM60.7844 32.035V29.8968H67.9688V32.035H60.7844ZM75.3413 35.2851C74.3973 35.2851 73.5737 35.0475 72.8704 34.5724C72.1672 34.0972 71.6224 33.451 71.2359 32.6337C70.8495 31.8165 70.6562 30.8947 70.6562 29.8683C70.6562 28.8293 70.8495 27.9043 71.2359 27.0934C71.6287 26.2761 72.1831 25.6331 72.899 25.1643C73.6149 24.6891 74.4575 24.4515 75.4268 24.4515C76.4024 24.4515 77.2197 24.6891 77.8786 25.1643C78.5438 25.6331 79.0475 26.2761 79.3896 27.0934C79.7317 27.9107 79.9028 28.8356 79.9028 29.8683C79.9028 30.8883 79.7317 31.8101 79.3896 32.6337C79.0475 33.451 78.5375 34.0972 77.8596 34.5724C77.1817 35.0475 76.3423 35.2851 75.3413 35.2851ZM75.6929 33.2324C76.3074 33.2324 76.8016 33.093 77.1754 32.8143C77.5555 32.5292 77.8311 32.1332 78.0021 31.6264C78.1795 31.1196 78.2682 30.5335 78.2682 29.8683C78.2682 29.1968 78.1795 28.6107 78.0021 28.1102C77.8311 27.6034 77.5618 27.2106 77.1944 26.9319C76.8269 26.6468 76.3518 26.5042 75.7689 26.5042C75.1544 26.5042 74.6475 26.6563 74.2484 26.9604C73.8493 27.2581 73.5547 27.6636 73.3646 28.1768C73.1745 28.6836 73.0795 29.2474 73.0795 29.8683C73.0795 30.4955 73.1714 31.0657 73.3551 31.5789C73.5452 32.0857 73.8334 32.488 74.2199 32.7858C74.6063 33.0835 75.0973 33.2324 75.6929 33.2324ZM78.2682 35V27.7966H77.9831V21.3155H80.2924V35H78.2682ZM86.2164 35.2851C85.2724 35.2851 84.4488 35.0475 83.7456 34.5724C83.0423 34.0972 82.4975 33.451 82.111 32.6337C81.7246 31.8165 81.5313 30.8947 81.5313 29.8683C81.5313 28.8293 81.7246 27.9043 82.111 27.0934C82.5038 26.2761 83.0582 25.6331 83.7741 25.1643C84.49 24.6891 85.3326 24.4515 86.3019 24.4515C87.2776 24.4515 88.0948 24.6891 88.7537 25.1643C89.4189 25.6331 89.9226 26.2761 90.2647 27.0934C90.6068 27.9107 90.7779 28.8356 90.7779 29.8683C90.7779 30.8883 90.6068 31.8101 90.2647 32.6337C89.9226 33.451 89.4126 34.0972 88.7347 34.5724C88.0568 35.0475 87.2174 35.2851 86.2164 35.2851ZM86.568 33.2324C87.1825 33.2324 87.6767 33.093 88.0505 32.8143C88.4306 32.5292 88.7062 32.1332 88.8773 31.6264C89.0546 31.1196 89.1433 30.5335 89.1433 29.8683C89.1433 29.1968 89.0546 28.6107 88.8773 28.1102C88.7062 27.6034 88.4369 27.2106 88.0695 26.9319C87.702 26.6468 87.2269 26.5042 86.644 26.5042C86.0295 26.5042 85.5227 26.6563 85.1235 26.9604C84.7244 27.2581 84.4298 27.6636 84.2397 28.1768C84.0497 28.6836 83.9546 29.2474 83.9546 29.8683C83.9546 30.4955 84.0465 31.0657 84.2302 31.5789C84.4203 32.0857 84.7086 32.488 85.095 32.7858C85.4815 33.0835 85.9725 33.2324 86.568 33.2324ZM89.1433 35V27.7966H88.8583V21.3155H91.1675V35H89.1433ZM103.025 35V30.0584C103.025 29.7353 103.003 29.3773 102.959 28.9845C102.914 28.5917 102.81 28.2148 102.645 27.8537C102.487 27.4862 102.246 27.1853 101.923 26.9509C101.606 26.7165 101.175 26.5992 100.63 26.5992C100.339 26.5992 100.051 26.6468 99.7656 26.7418C99.4805 26.8368 99.2208 27.0015 98.9863 27.236C98.7583 27.464 98.5745 27.7808 98.4352 28.1863C98.2958 28.5854 98.2261 29.0986 98.2261 29.7258L96.8672 29.1461C96.8672 28.2718 97.035 27.4799 97.3708 26.7703C97.7129 26.0607 98.2134 25.4969 98.8723 25.0787C99.5312 24.6543 100.342 24.442 101.305 24.442C102.065 24.442 102.693 24.5687 103.187 24.8222C103.681 25.0756 104.074 25.3987 104.365 25.7915C104.657 26.1843 104.872 26.6024 105.011 27.0459C105.151 27.4894 105.239 27.9107 105.277 28.3098C105.322 28.7026 105.344 29.0225 105.344 29.2696V35H103.025ZM95.9073 35V24.7366H97.9505V27.9202H98.2261V35H95.9073ZM111.468 35.2851C110.428 35.2851 109.516 35.0602 108.731 34.6104C107.945 34.1606 107.33 33.5365 106.887 32.7383C106.45 31.94 106.231 31.0214 106.231 29.9824C106.231 28.861 106.447 27.8885 106.877 27.0649C107.308 26.235 107.907 25.5919 108.674 25.1358C109.44 24.6796 110.327 24.4515 111.334 24.4515C112.399 24.4515 113.302 24.7018 114.043 25.2023C114.79 25.6964 115.345 26.3965 115.706 27.3025C116.067 28.2084 116.203 29.276 116.115 30.505H113.843V29.6688C113.837 28.5537 113.641 27.7396 113.254 27.2265C112.868 26.7133 112.259 26.4567 111.429 26.4567C110.492 26.4567 109.795 26.7481 109.339 27.331C108.883 27.9075 108.655 28.7533 108.655 29.8683C108.655 30.9073 108.883 31.7119 109.339 32.2821C109.795 32.8523 110.46 33.1374 111.334 33.1374C111.898 33.1374 112.383 33.0138 112.788 32.7668C113.2 32.5134 113.517 32.1491 113.739 31.6739L116 32.3581C115.608 33.2831 114.999 34.0022 114.176 34.5153C113.359 35.0285 112.456 35.2851 111.468 35.2851ZM107.932 30.505V28.7755H114.993V30.505H107.932ZM119.194 35L116.058 24.7176L118.301 24.7366L120.306 31.3223L122.34 24.7366H124.269L126.293 31.3223L128.308 24.7366H130.55L127.414 35H125.628L123.299 27.9392L120.981 35H119.194Z" fill="white"/>
</svg>
