<svg width="51" height="51" viewBox="0 0 51 51" fill="none" xmlns="http://www.w3.org/2000/svg">
<circle cx="25.5" cy="25.5" r="25.5" fill="#31D66C" fill-opacity="0.13"/>
<path d="M33.3268 13.8601C31.8355 12.4972 30.009 11.5761 28.044 11.1959C26.079 10.8158 24.0498 10.991 22.1749 11.7027C20.2999 12.4144 18.6502 13.6356 17.4033 15.235C16.1563 16.8343 15.3594 18.7513 15.0981 20.7795C14.8635 22.5579 15.0511 24.3679 15.6452 26.0564C16.2392 27.7449 17.2221 29.2621 18.5107 30.4798C19.3076 31.1946 19.9507 32.071 20.3991 33.0534C20.8475 34.0358 21.0915 35.1028 21.1157 36.1867V36.3879C21.117 37.6107 21.5924 38.7831 22.4377 39.6477C23.2829 40.5123 24.429 40.9987 25.6243 41H26.3819C27.5772 40.9987 28.7233 40.5123 29.5685 39.6477C30.4138 38.7831 30.8892 37.6107 30.8905 36.3879V35.7018C30.9088 34.7437 31.1292 33.801 31.5366 32.9381C31.944 32.0752 32.5288 31.3125 33.2511 30.7023C34.4223 29.6529 35.3622 28.3609 36.0085 26.912C36.6548 25.463 36.9927 23.8901 36.9999 22.2974C37.007 20.7047 36.6833 19.1287 36.0501 17.6737C35.4168 16.2187 34.4886 14.918 33.3268 13.8576V13.8601ZM26.3819 38.5002H25.6243C25.0769 38.4996 24.552 38.2768 24.1649 37.8808C23.7778 37.4848 23.56 36.948 23.5594 36.3879C23.5594 36.3879 23.5508 36.063 23.5496 36.0005H28.4468V36.3879C28.4461 36.948 28.2284 37.4848 27.8413 37.8808C27.4542 38.2768 26.9293 38.4996 26.3819 38.5002ZM31.6358 28.8249C30.2446 30.0592 29.24 31.6856 28.7474 33.5007H27.2249V24.5216C27.9372 24.264 28.5542 23.7876 28.9916 23.1576C29.429 22.5276 29.6655 21.7747 29.6686 21.0019C29.6686 20.6705 29.5399 20.3525 29.3108 20.1181C29.0816 19.8837 28.7708 19.7521 28.4468 19.7521C28.1227 19.7521 27.8119 19.8837 27.5828 20.1181C27.3537 20.3525 27.2249 20.6705 27.2249 21.0019C27.2249 21.3334 27.0962 21.6513 26.8671 21.8857C26.6379 22.1201 26.3271 22.2518 26.0031 22.2518C25.679 22.2518 25.3683 22.1201 25.1391 21.8857C24.91 21.6513 24.7812 21.3334 24.7812 21.0019C24.7812 20.6705 24.6525 20.3525 24.4234 20.1181C24.1942 19.8837 23.8835 19.7521 23.5594 19.7521C23.2353 19.7521 22.9246 19.8837 22.6954 20.1181C22.4663 20.3525 22.3376 20.6705 22.3376 21.0019C22.3407 21.7747 22.5771 22.5276 23.0146 23.1576C23.452 23.7876 24.069 24.264 24.7812 24.5216V33.5007H23.166C22.6149 31.6374 21.5814 29.9613 20.1749 28.65C18.9811 27.5121 18.1304 26.0486 17.7232 24.4322C17.316 22.8159 17.3693 21.1141 17.8768 19.5277C18.3844 17.9413 19.3249 16.5366 20.5875 15.4792C21.85 14.4218 23.3819 13.7559 25.0024 13.5602C25.3383 13.5218 25.6761 13.5026 26.0141 13.5027C28.1127 13.4963 30.1386 14.2884 31.6981 15.725C32.6019 16.5494 33.3241 17.5609 33.8167 18.6924C34.3094 19.824 34.5613 21.0498 34.5558 22.2885C34.5502 23.5272 34.2873 24.7505 33.7846 25.8774C33.2818 27.0043 32.5506 28.009 31.6395 28.8249H31.6358Z" fill="#31D66C"/>
</svg>
