<svg width="31" height="31" viewBox="0 0 31 31" fill="none" xmlns="http://www.w3.org/2000/svg">
<path d="M26.3141 13.3079V7.05504C26.3163 6.41769 26.1305 5.79389 25.7802 5.26189C25.4299 4.72989 24.9306 4.31338 24.3449 4.06458C20.373 2.00593 10.6166 2.01352 6.65545 4.06458C6.06971 4.31326 5.57033 4.72975 5.21999 5.26177C4.86965 5.7938 4.68396 6.41766 4.68623 7.05504V13.3079H2.52344V16.5584C2.52344 17.1331 2.7513 17.6843 3.1569 18.0907C3.56251 18.4971 4.11262 18.7254 4.68623 18.7254V26.3099H6.84902V28.4769H12.256V26.3099H18.7444V28.4769H24.1513V26.3099H26.3141V18.7254C26.8877 18.7254 27.4379 18.4971 27.8435 18.0907C28.2491 17.6843 28.4769 17.1331 28.4769 16.5584V13.3079H26.3141ZM6.84902 16.5584V10.0574H24.1513V16.5584H6.84902ZM7.49786 6.06147C10.0443 5.05887 12.7649 4.57557 15.5002 4.63992C18.2354 4.57538 20.9559 5.05829 23.5025 6.06039C23.6964 6.14367 23.8615 6.28251 23.9769 6.45947C24.0924 6.63644 24.1531 6.84364 24.1513 7.05504V7.89042H18.7444V6.80692H12.256V7.89042H6.84902V7.05504C6.84738 6.84379 6.90809 6.63677 7.02354 6.45999C7.13898 6.28321 7.304 6.14456 7.49786 6.06147ZM6.84902 24.1429V18.7254H9.01181V19.8089C9.01181 20.0963 9.12574 20.3719 9.32854 20.5751C9.53134 20.7783 9.8064 20.8924 10.0932 20.8924C10.38 20.8924 10.6551 20.7783 10.8579 20.5751C11.0607 20.3719 11.1746 20.0963 11.1746 19.8089V18.7254H19.8258V19.8089C19.8258 20.0963 19.9397 20.3719 20.1425 20.5751C20.3453 20.7783 20.6204 20.8924 20.9072 20.8924C21.194 20.8924 21.469 20.7783 21.6718 20.5751C21.8746 20.3719 21.9886 20.0963 21.9886 19.8089V18.7254H24.1513V24.1429H6.84902Z" fill="#E38800"/>
</svg>
