<svg width="29" height="44" viewBox="0 0 29 44" fill="currentColor" xmlns="http://www.w3.org/2000/svg">
<path d="M26.9745 10.5619L18.1253 1.70625C17.0301 0.613585 15.5466 0 14 0C12.4534 0 10.9699 0.613585 9.87467 1.70625L1.02551 10.5619C0.699343 10.8862 0.440745 11.272 0.26471 11.697C0.088675 12.122 -0.00129547 12.5778 1.40927e-05 13.0379V24.4979C1.40927e-05 25.4267 0.368763 26.3175 1.02514 26.9743C1.68152 27.631 2.57175 28 3.50001 28H24.5C25.4282 28 26.3185 27.631 26.9749 26.9743C27.6312 26.3175 28 25.4267 28 24.4979V13.0379C28.0013 12.5778 27.9113 12.122 27.7353 11.697C27.5593 11.272 27.3007 10.8862 26.9745 10.5619ZM17.5 25.6653H10.5V21.0729C10.5 20.144 10.8688 19.2533 11.5251 18.5965C12.1815 17.9397 13.0717 17.5708 14 17.5708C14.9283 17.5708 15.8185 17.9397 16.4749 18.5965C17.1312 19.2533 17.5 20.144 17.5 21.0729V25.6653ZM25.6667 24.4979C25.6667 24.8075 25.5437 25.1044 25.3249 25.3234C25.1062 25.5423 24.8094 25.6653 24.5 25.6653H19.8333V21.0729C19.8333 19.5248 19.2187 18.0402 18.1248 16.9456C17.0308 15.851 15.5471 15.236 14 15.236C12.4529 15.236 10.9692 15.851 9.87521 16.9456C8.78125 18.0402 8.16667 19.5248 8.16667 21.0729V25.6653H3.50001C3.19059 25.6653 2.89385 25.5423 2.67505 25.3234C2.45626 25.1044 2.33334 24.8075 2.33334 24.4979V13.0379C2.33443 12.7285 2.45723 12.432 2.67518 12.2125L11.5243 3.36041C12.182 2.70543 13.0721 2.33773 14 2.33773C14.9279 2.33773 15.818 2.70543 16.4757 3.36041L25.3248 12.216C25.5419 12.4346 25.6647 12.7297 25.6667 13.0379V24.4979Z" fill="currentColor"/>
<path d="M0.738274 43V35.4063H2.00916V38.602H5.60561V35.4063H6.87122V43H5.60561V39.7938H2.00916V43H0.738274Z" fill="currentColor"/>
<path d="M10.5487 43.1582C9.97913 43.1582 9.48168 43.0299 9.05629 42.7732C8.63091 42.5166 8.30044 42.1633 8.0649 41.7133C7.83287 41.2598 7.71685 40.7395 7.71685 40.1524C7.71685 39.5547 7.83638 39.0309 8.07544 38.5809C8.3145 38.1309 8.64673 37.7794 9.07211 37.5262C9.4975 37.2731 9.98968 37.1465 10.5487 37.1465C11.1217 37.1465 11.6209 37.2749 12.0463 37.5315C12.4717 37.7881 12.8022 38.1432 13.0377 38.5967C13.2732 39.0467 13.391 39.5653 13.391 40.1524C13.391 40.743 13.2715 41.2651 13.0324 41.7186C12.7969 42.1686 12.4664 42.5219 12.041 42.7785C11.6156 43.0316 11.1182 43.1582 10.5487 43.1582ZM10.5487 41.9664C11.0549 41.9664 11.4311 41.7977 11.6772 41.4602C11.9233 41.1227 12.0463 40.6867 12.0463 40.1524C12.0463 39.6004 11.9215 39.161 11.6719 38.834C11.4223 38.5036 11.0479 38.3383 10.5487 38.3383C10.2076 38.3383 9.9264 38.4157 9.70492 38.5704C9.48695 38.7215 9.32524 38.9342 9.21977 39.2084C9.1143 39.4791 9.06157 39.7938 9.06157 40.1524C9.06157 40.7043 9.18637 41.1455 9.43598 41.476C9.6891 41.8029 10.06 41.9664 10.5487 41.9664Z" fill="currentColor"/>
<path d="M21.0761 43V39.5407C21.0761 39.1504 20.9794 38.8463 20.786 38.6284C20.5927 38.4069 20.3308 38.2961 20.0003 38.2961C19.7964 38.2961 19.6136 38.3436 19.4519 38.4385C19.2901 38.5299 19.1618 38.667 19.0669 38.8498C18.972 39.0291 18.9245 39.2436 18.9245 39.4932L18.3603 39.161C18.3568 38.7672 18.4446 38.4209 18.6239 38.1221C18.8067 37.8198 19.0528 37.5842 19.3622 37.4155C19.6716 37.2467 20.0161 37.1624 20.3958 37.1624C21.0251 37.1624 21.5067 37.3522 21.8407 37.7319C22.1782 38.1081 22.3469 38.6038 22.3469 39.219V43H21.0761ZM14.2259 43V37.3047H15.3492V39.0713H15.5074V43H14.2259ZM17.6589 43V39.5565C17.6589 39.1592 17.5622 38.8498 17.3689 38.6284C17.1755 38.4069 16.9118 38.2961 16.5779 38.2961C16.2544 38.2961 15.9943 38.4069 15.7974 38.6284C15.604 38.8498 15.5074 39.1381 15.5074 39.4932L14.9378 39.1135C14.9378 38.7444 15.0293 38.4122 15.2121 38.1168C15.3949 37.8215 15.641 37.5895 15.9503 37.4208C16.2632 37.2485 16.613 37.1624 16.9997 37.1624C17.4251 37.1624 17.7802 37.2538 18.065 37.4366C18.3532 37.6159 18.5677 37.862 18.7083 38.1749C18.8525 38.4842 18.9245 38.834 18.9245 39.2243V43H17.6589Z" fill="currentColor"/>
<path d="M25.9025 43.1582C25.326 43.1582 24.8197 43.0334 24.3838 42.7838C23.9479 42.5342 23.6068 42.1879 23.3608 41.7449C23.1182 41.302 22.9969 40.7922 22.9969 40.2157C22.9969 39.5934 23.1164 39.0538 23.3555 38.5967C23.5945 38.1362 23.9268 37.7794 24.3522 37.5262C24.7775 37.2731 25.2697 37.1465 25.8287 37.1465C26.4193 37.1465 26.9203 37.2854 27.3316 37.5631C27.7465 37.8374 28.0541 38.2258 28.2545 38.7286C28.4548 39.2313 28.5304 39.8237 28.4812 40.5057H27.2209V40.0416C27.2174 39.4229 27.1084 38.9711 26.8939 38.6864C26.6795 38.4016 26.342 38.2592 25.8814 38.2592C25.3611 38.2592 24.9744 38.4209 24.7213 38.7444C24.4682 39.0643 24.3416 39.5336 24.3416 40.1524C24.3416 40.7289 24.4682 41.1754 24.7213 41.4918C24.9744 41.8082 25.3435 41.9664 25.8287 41.9664C26.1416 41.9664 26.4105 41.8979 26.6355 41.7608C26.864 41.6201 27.0398 41.418 27.1629 41.1543L28.4179 41.534C28.2 42.0473 27.8625 42.4463 27.4054 42.7311C26.9519 43.0158 26.451 43.1582 25.9025 43.1582ZM23.9408 40.5057V39.5459H27.859V40.5057H23.9408Z" fill="currentColor"/>
</svg>
