<svg width="61" height="45" viewBox="0 0 61 45" fill="none" xmlns="http://www.w3.org/2000/svg">
<path d="M40.9998 29.15H41.1498V29V3C41.1498 1.81259 40.1872 0.85 38.9998 0.85H35.2629C34.0755 0.85 33.1129 1.81259 33.1129 3V7.98239C32.8808 7.89674 32.63 7.85 32.3686 7.85H28.6317C27.4443 7.85 26.4817 8.81259 26.4817 10V14.9826C26.2495 14.8968 25.9985 14.85 25.7368 14.85H22C20.8126 14.85 19.85 15.8126 19.85 17V29V29.15H20H40.9998ZM35.2629 2.74375H38.9998C39.1413 2.74375 39.256 2.85848 39.256 3V27.2563H35.0067V3C35.0067 2.85848 35.1214 2.74375 35.2629 2.74375ZM28.6317 9.74375H32.3686C32.5101 9.74375 32.6248 9.85848 32.6248 10V27.2563H28.3755V10C28.3755 9.85848 28.4902 9.74375 28.6317 9.74375ZM22 16.7437H25.7368C25.8784 16.7437 25.9931 16.8585 25.9931 17V27.2563H21.7437V17C21.7437 16.8585 21.8585 16.7437 22 16.7437Z" fill="currentColor" stroke="currentColor" stroke-width="0.3"/>
<path d="M0.84375 43.9999V36.4062H2.11464V42.8081H5.46851V43.9999H0.84375Z" fill="currentColor"/>
<path d="M8.63468 44.1581C8.05812 44.1581 7.55188 44.0333 7.11594 43.7837C6.68001 43.5341 6.339 43.1878 6.09291 42.7449C5.85033 42.3019 5.72904 41.7921 5.72904 41.2156C5.72904 40.5933 5.84857 40.0537 6.08763 39.5966C6.32669 39.1361 6.65892 38.7793 7.0843 38.5261C7.50969 38.273 8.00187 38.1465 8.56085 38.1465C9.15147 38.1465 9.65244 38.2853 10.0638 38.5631C10.4786 38.8373 10.7862 39.2258 10.9866 39.7285C11.187 40.2312 11.2626 40.8236 11.2134 41.5056H9.95302V41.0416C9.94951 40.4228 9.84053 39.9711 9.62607 39.6863C9.41162 39.4015 9.07413 39.2592 8.61358 39.2592C8.09328 39.2592 7.70656 39.4209 7.45344 39.7443C7.20032 40.0642 7.07376 40.5336 7.07376 41.1523C7.07376 41.7289 7.20032 42.1753 7.45344 42.4917C7.70656 42.8081 8.0757 42.9663 8.56085 42.9663C8.87374 42.9663 9.14268 42.8978 9.36768 42.7607C9.59619 42.6201 9.77197 42.4179 9.89502 42.1542L11.1501 42.5339C10.9321 43.0472 10.5946 43.4462 10.1376 43.731C9.68408 44.0157 9.18311 44.1581 8.63468 44.1581ZM6.67298 41.5056V40.5459H10.5911V41.5056H6.67298Z" fill="currentColor"/>
<path d="M13.5631 44.1581C13.1518 44.1581 12.8038 44.0808 12.519 43.9261C12.2343 43.7679 12.018 43.5587 11.8704 43.2986C11.7263 43.0384 11.6542 42.7519 11.6542 42.439C11.6542 42.1648 11.6999 41.9187 11.7913 41.7007C11.8827 41.4792 12.0233 41.2894 12.2132 41.1312C12.403 40.9695 12.6491 40.8376 12.9514 40.7357C13.1799 40.6619 13.4471 40.5951 13.753 40.5353C14.0624 40.4755 14.3963 40.4211 14.7549 40.3718C15.117 40.3191 15.495 40.2629 15.8887 40.2031L15.4352 40.4615C15.4387 40.0677 15.3508 39.7777 15.1715 39.5914C14.9922 39.405 14.6899 39.3119 14.2645 39.3119C14.0079 39.3119 13.76 39.3716 13.521 39.4912C13.2819 39.6107 13.1149 39.8164 13.02 40.1082L11.8598 39.7443C12.0005 39.2627 12.2677 38.876 12.6614 38.5842C13.0587 38.2924 13.593 38.1465 14.2645 38.1465C14.7708 38.1465 15.2155 38.2291 15.5987 38.3943C15.9854 38.5595 16.2719 38.8302 16.4582 39.2064C16.5602 39.4068 16.6217 39.6125 16.6428 39.8234C16.6639 40.0308 16.6744 40.2576 16.6744 40.5037V43.9999H15.5618V42.7659L15.7463 42.9663C15.4897 43.3777 15.1891 43.68 14.8446 43.8734C14.5036 44.0632 14.0764 44.1581 13.5631 44.1581ZM13.8163 43.1456C14.1045 43.1456 14.3506 43.0947 14.5545 42.9927C14.7584 42.8908 14.9202 42.7659 15.0397 42.6183C15.1627 42.4706 15.2454 42.3318 15.2875 42.2017C15.3543 42.04 15.3913 41.8554 15.3983 41.648C15.4088 41.4371 15.4141 41.2666 15.4141 41.1365L15.8043 41.2525C15.4211 41.3123 15.0924 41.365 14.8182 41.4107C14.544 41.4564 14.3085 41.5003 14.1116 41.5425C13.9147 41.5812 13.7407 41.6251 13.5895 41.6744C13.4419 41.7271 13.3171 41.7886 13.2151 41.8589C13.1132 41.9292 13.0341 42.0101 12.9778 42.1015C12.9251 42.1929 12.8987 42.3001 12.8987 42.4232C12.8987 42.5638 12.9339 42.6886 13.0042 42.7976C13.0745 42.9031 13.1764 42.9874 13.31 43.0507C13.4471 43.114 13.6159 43.1456 13.8163 43.1456Z" fill="currentColor"/>
<path d="M20.0143 44.1581C19.4905 44.1581 19.0335 44.0263 18.6432 43.7626C18.253 43.499 17.9507 43.1404 17.7362 42.6868C17.5218 42.2333 17.4145 41.7218 17.4145 41.1523C17.4145 40.5757 17.5218 40.0625 17.7362 39.6125C17.9542 39.159 18.2618 38.8021 18.659 38.542C19.0563 38.2783 19.5239 38.1465 20.0618 38.1465C20.6032 38.1465 21.0567 38.2783 21.4223 38.542C21.7914 38.8021 22.0709 39.159 22.2608 39.6125C22.4506 40.066 22.5455 40.5793 22.5455 41.1523C22.5455 41.7183 22.4506 42.2298 22.2608 42.6868C22.0709 43.1404 21.7879 43.499 21.4118 43.7626C21.0356 44.0263 20.5698 44.1581 20.0143 44.1581ZM20.2094 43.0191C20.5504 43.0191 20.8246 42.9417 21.0321 42.787C21.243 42.6288 21.3959 42.4091 21.4909 42.1279C21.5893 41.8466 21.6385 41.5214 21.6385 41.1523C21.6385 40.7796 21.5893 40.4545 21.4909 40.1767C21.3959 39.8955 21.2465 39.6775 21.0426 39.5228C20.8387 39.3646 20.575 39.2855 20.2516 39.2855C19.9106 39.2855 19.6294 39.3699 19.4079 39.5386C19.1864 39.7039 19.0229 39.9289 18.9174 40.2136C18.812 40.4949 18.7592 40.8078 18.7592 41.1523C18.7592 41.5003 18.8102 41.8167 18.9122 42.1015C19.0176 42.3828 19.1776 42.606 19.392 42.7712C19.6065 42.9365 19.879 43.0191 20.2094 43.0191ZM21.6385 43.9999V40.0027H21.4803V36.4062H22.7617V43.9999H21.6385Z" fill="currentColor"/>
<path d="M26.5131 44.1581C25.9365 44.1581 25.4303 44.0333 24.9944 43.7837C24.5584 43.5341 24.2174 43.1878 23.9713 42.7449C23.7287 42.3019 23.6075 41.7921 23.6075 41.2156C23.6075 40.5933 23.727 40.0537 23.966 39.5966C24.2051 39.1361 24.5373 38.7793 24.9627 38.5261C25.3881 38.273 25.8803 38.1465 26.4393 38.1465C27.0299 38.1465 27.5309 38.2853 27.9422 38.5631C28.357 38.8373 28.6646 39.2258 28.865 39.7285C29.0654 40.2312 29.141 40.8236 29.0918 41.5056H27.8314V41.0416C27.8279 40.4228 27.7189 39.9711 27.5045 39.6863C27.29 39.4015 26.9525 39.2592 26.492 39.2592C25.9717 39.2592 25.585 39.4209 25.3319 39.7443C25.0787 40.0642 24.9522 40.5336 24.9522 41.1523C24.9522 41.7289 25.0787 42.1753 25.3319 42.4917C25.585 42.8081 25.9541 42.9663 26.4393 42.9663C26.7522 42.9663 27.0211 42.8978 27.2461 42.7607C27.4746 42.6201 27.6504 42.4179 27.7734 42.1542L29.0285 42.5339C28.8105 43.0472 28.473 43.4462 28.016 43.731C27.5625 44.0157 27.0615 44.1581 26.5131 44.1581ZM24.5514 41.5056V40.5459H28.4695V41.5056H24.5514Z" fill="currentColor"/>
<path d="M29.952 43.9999V38.3047H31.0752V39.6916L30.9381 39.5123C31.0084 39.3224 31.1016 39.1502 31.2176 38.9955C31.3371 38.8373 31.4795 38.7072 31.6448 38.6053C31.7854 38.5103 31.9401 38.4365 32.1088 38.3838C32.2811 38.3275 32.4569 38.2941 32.6362 38.2836C32.8154 38.2695 32.9895 38.2765 33.1582 38.3047V39.4912C32.9895 39.442 32.7944 39.4261 32.5729 39.4437C32.3549 39.4613 32.158 39.5228 31.9823 39.6283C31.8065 39.7232 31.6623 39.8445 31.5498 39.9922C31.4408 40.1398 31.36 40.3086 31.3073 40.4984C31.2545 40.6847 31.2282 40.8869 31.2282 41.1048V43.9999H29.952Z" fill="currentColor"/>
<path d="M36.585 44.1581C36.0295 44.1581 35.5637 44.0263 35.1876 43.7626C34.8114 43.499 34.5284 43.1404 34.3385 42.6868C34.1487 42.2298 34.0538 41.7183 34.0538 41.1523C34.0538 40.5793 34.1487 40.066 34.3385 39.6125C34.5284 39.159 34.8061 38.8021 35.1717 38.542C35.5409 38.2783 35.9961 38.1465 36.5375 38.1465C37.0754 38.1465 37.5412 38.2783 37.935 38.542C38.3323 38.8021 38.6399 39.159 38.8578 39.6125C39.0758 40.0625 39.1848 40.5757 39.1848 41.1523C39.1848 41.7218 39.0776 42.2333 38.8631 42.6868C38.6487 43.1404 38.3463 43.499 37.9561 43.7626C37.5659 44.0263 37.1088 44.1581 36.585 44.1581ZM33.8376 43.9999V36.4062H35.119V40.0027H34.9608V43.9999H33.8376ZM36.3899 43.0191C36.7204 43.0191 36.9928 42.9365 37.2073 42.7712C37.4217 42.606 37.5799 42.3828 37.6819 42.1015C37.7873 41.8167 37.8401 41.5003 37.8401 41.1523C37.8401 40.8078 37.7873 40.4949 37.6819 40.2136C37.5764 39.9289 37.4129 39.7039 37.1914 39.5386C36.97 39.3699 36.6887 39.2855 36.3477 39.2855C36.0243 39.2855 35.7606 39.3646 35.5567 39.5228C35.3528 39.6775 35.2016 39.8955 35.1032 40.1767C35.0083 40.4545 34.9608 40.7796 34.9608 41.1523C34.9608 41.5214 35.0083 41.8466 35.1032 42.1279C35.2016 42.4091 35.3546 42.6288 35.562 42.787C35.7729 42.9417 36.0489 43.0191 36.3899 43.0191Z" fill="currentColor"/>
<path d="M42.5462 44.1581C41.9766 44.1581 41.4792 44.0298 41.0538 43.7732C40.6284 43.5165 40.2979 43.1632 40.0624 42.7132C39.8304 42.2597 39.7143 41.7394 39.7143 41.1523C39.7143 40.5546 39.8339 40.0308 40.0729 39.5808C40.312 39.1308 40.6442 38.7793 41.0696 38.5261C41.495 38.273 41.9872 38.1465 42.5462 38.1465C43.1192 38.1465 43.6184 38.2748 44.0438 38.5314C44.4692 38.7881 44.7996 39.1431 45.0352 39.5966C45.2707 40.0466 45.3885 40.5652 45.3885 41.1523C45.3885 41.7429 45.269 42.265 45.0299 42.7185C44.7944 43.1685 44.4639 43.5218 44.0385 43.7784C43.6131 44.0316 43.1157 44.1581 42.5462 44.1581ZM42.5462 42.9663C43.0524 42.9663 43.4286 42.7976 43.6747 42.4601C43.9207 42.1226 44.0438 41.6867 44.0438 41.1523C44.0438 40.6003 43.919 40.1609 43.6694 39.8339C43.4198 39.5035 43.0454 39.3383 42.5462 39.3383C42.2051 39.3383 41.9239 39.4156 41.7024 39.5703C41.4844 39.7215 41.3227 39.9341 41.2173 40.2084C41.1118 40.4791 41.0591 40.7937 41.0591 41.1523C41.0591 41.7042 41.1839 42.1454 41.4335 42.4759C41.6866 42.8029 42.0575 42.9663 42.5462 42.9663Z" fill="currentColor"/>
<path d="M47.8265 44.1581C47.4152 44.1581 47.0672 44.0808 46.7824 43.9261C46.4976 43.7679 46.2814 43.5587 46.1338 43.2986C45.9896 43.0384 45.9176 42.7519 45.9176 42.439C45.9176 42.1648 45.9633 41.9187 46.0547 41.7007C46.1461 41.4792 46.2867 41.2894 46.4766 41.1312C46.6664 40.9695 46.9125 40.8376 47.2148 40.7357C47.4433 40.6619 47.7105 40.5951 48.0164 40.5353C48.3258 40.4755 48.6597 40.4211 49.0183 40.3718C49.3804 40.3191 49.7584 40.2629 50.1521 40.2031L49.6986 40.4615C49.7021 40.0677 49.6142 39.7777 49.4349 39.5914C49.2556 39.405 48.9533 39.3119 48.5279 39.3119C48.2713 39.3119 48.0234 39.3716 47.7844 39.4912C47.5453 39.6107 47.3783 39.8164 47.2834 40.1082L46.1232 39.7443C46.2639 39.2627 46.531 38.876 46.9248 38.5842C47.3221 38.2924 47.8564 38.1465 48.5279 38.1465C49.0341 38.1465 49.4789 38.2291 49.8621 38.3943C50.2488 38.5595 50.5353 38.8302 50.7216 39.2064C50.8236 39.4068 50.8851 39.6125 50.9062 39.8234C50.9273 40.0308 50.9378 40.2576 50.9378 40.5037V43.9999H49.8252V42.7659L50.0097 42.9663C49.7531 43.3777 49.4525 43.68 49.108 43.8734C48.767 44.0632 48.3398 44.1581 47.8265 44.1581ZM48.0797 43.1456C48.3679 43.1456 48.614 43.0947 48.8179 42.9927C49.0218 42.8908 49.1836 42.7659 49.3031 42.6183C49.4261 42.4706 49.5088 42.3318 49.5509 42.2017C49.6177 42.04 49.6546 41.8554 49.6617 41.648C49.6722 41.4371 49.6775 41.2666 49.6775 41.1365L50.0677 41.2525C49.6845 41.3123 49.3558 41.365 49.0816 41.4107C48.8074 41.4564 48.5718 41.5003 48.375 41.5425C48.1781 41.5812 48.0041 41.6251 47.8529 41.6744C47.7053 41.7271 47.5804 41.7886 47.4785 41.8589C47.3765 41.9292 47.2974 42.0101 47.2412 42.1015C47.1885 42.1929 47.1621 42.3001 47.1621 42.4232C47.1621 42.5638 47.1973 42.6886 47.2676 42.7976C47.3379 42.9031 47.4398 42.9874 47.5734 43.0507C47.7105 43.114 47.8793 43.1456 48.0797 43.1456Z" fill="currentColor"/>
<path d="M51.9943 43.9999V38.3047H53.1176V39.6916L52.9804 39.5123C53.0508 39.3224 53.1439 39.1502 53.2599 38.9955C53.3795 38.8373 53.5218 38.7072 53.6871 38.6053C53.8277 38.5103 53.9824 38.4365 54.1511 38.3838C54.3234 38.3275 54.4992 38.2941 54.6785 38.2836C54.8578 38.2695 55.0318 38.2765 55.2005 38.3047V39.4912C55.0318 39.442 54.8367 39.4261 54.6152 39.4437C54.3972 39.4613 54.2004 39.5228 54.0246 39.6283C53.8488 39.7232 53.7047 39.8445 53.5922 39.9922C53.4832 40.1398 53.4023 40.3086 53.3496 40.4984C53.2968 40.6847 53.2705 40.8869 53.2705 41.1048V43.9999H51.9943Z" fill="currentColor"/>
<path d="M58.0708 44.1581C57.547 44.1581 57.09 44.0263 56.6997 43.7626C56.3095 43.499 56.0072 43.1404 55.7927 42.6868C55.5783 42.2333 55.4711 41.7218 55.4711 41.1523C55.4711 40.5757 55.5783 40.0625 55.7927 39.6125C56.0107 39.159 56.3183 38.8021 56.7156 38.542C57.1128 38.2783 57.5804 38.1465 58.1183 38.1465C58.6597 38.1465 59.1132 38.2783 59.4788 38.542C59.848 38.8021 60.1274 39.159 60.3173 39.6125C60.5071 40.066 60.6021 40.5793 60.6021 41.1523C60.6021 41.7183 60.5071 42.2298 60.3173 42.6868C60.1274 43.1404 59.8444 43.499 59.4683 43.7626C59.0921 44.0263 58.6263 44.1581 58.0708 44.1581ZM58.2659 43.0191C58.607 43.0191 58.8812 42.9417 59.0886 42.787C59.2995 42.6288 59.4525 42.4091 59.5474 42.1279C59.6458 41.8466 59.695 41.5214 59.695 41.1523C59.695 40.7796 59.6458 40.4545 59.5474 40.1767C59.4525 39.8955 59.303 39.6775 59.0991 39.5228C58.8952 39.3646 58.6316 39.2855 58.3081 39.2855C57.9671 39.2855 57.6859 39.3699 57.4644 39.5386C57.2429 39.7039 57.0794 39.9289 56.974 40.2136C56.8685 40.4949 56.8158 40.8078 56.8158 41.1523C56.8158 41.5003 56.8667 41.8167 56.9687 42.1015C57.0742 42.3828 57.2341 42.606 57.4486 42.7712C57.663 42.9365 57.9355 43.0191 58.2659 43.0191ZM59.695 43.9999V40.0027H59.5368V36.4062H60.8183V43.9999H59.695Z" fill="currentColor"/>
</svg>
