<svg width="27" height="45" viewBox="0 0 27 45" fill="none" xmlns="http://www.w3.org/2000/svg">
<path fill-rule="evenodd" clip-rule="evenodd" d="M7.45833 0H19.5417C21.1434 0.00191823 22.679 0.639065 23.8117 1.77168C24.9443 2.9043 25.5814 4.4399 25.5833 6.04166V22.9583C25.5814 24.5601 24.9443 26.0957 23.8117 27.2283C22.679 28.3609 21.1434 28.9981 19.5417 29H6.25C4.96812 29 3.73874 28.4908 2.83232 27.5843C1.92589 26.6779 1.41667 25.4485 1.41667 24.1667V6.04166C1.41858 4.4399 2.05573 2.9043 3.18835 1.77168C4.32097 0.639065 5.85657 0.00191823 7.45833 0ZM23.1667 19.3333V6.04166C23.1667 5.08026 22.7848 4.15822 22.1049 3.4784C21.4251 2.79858 20.5031 2.41667 19.5417 2.41667H8.66667V19.3333H23.1667ZM6.25 19.3333V2.6245C5.54333 2.87435 4.93147 3.33711 4.49868 3.94908C4.06589 4.56104 3.83344 5.29212 3.83333 6.04166V19.9822C4.56752 19.5565 5.4013 19.3326 6.25 19.3333ZM6.25 26.5833H19.5417C20.5031 26.5833 21.4251 26.2014 22.1049 25.5216C22.7848 24.8418 23.1667 23.9197 23.1667 22.9583V21.75H6.25C5.60906 21.75 4.99437 22.0046 4.54116 22.4578C4.08795 22.911 3.83333 23.5257 3.83333 24.1667C3.83333 24.8076 4.08795 25.4223 4.54116 25.8755C4.99437 26.3287 5.60906 26.5833 6.25 26.5833ZM0.843741 36.4063V44H5.4685V42.8082H2.11463V36.4063H0.843741ZM7.11594 43.7838C7.55187 44.0334 8.05811 44.1582 8.63467 44.1582C9.1831 44.1582 9.68407 44.0158 10.1376 43.7311C10.5946 43.4463 10.9321 43.0473 11.1501 42.534L9.89501 42.1543C9.77196 42.418 9.59618 42.6201 9.36767 42.7608C9.14267 42.8979 8.87373 42.9664 8.56084 42.9664C8.07569 42.9664 7.70655 42.8082 7.45343 42.4918C7.25465 42.2433 7.13392 41.9146 7.09124 41.5057H9.95302H10.5911H11.2134C11.2626 40.8237 11.187 40.2313 10.9866 39.7286C10.7862 39.2258 10.4786 38.8374 10.0638 38.5631C9.65243 38.2854 9.15146 38.1465 8.56084 38.1465C8.00186 38.1465 7.50968 38.2731 7.0843 38.5262C6.65891 38.7794 6.32669 39.1362 6.08763 39.5967C5.84857 40.0538 5.72904 40.5934 5.72904 41.2157C5.72904 41.7922 5.85032 42.302 6.0929 42.7449C6.33899 43.1879 6.68 43.5342 7.11594 43.7838ZM9.92341 40.5459C9.87751 40.1752 9.77839 39.8886 9.62607 39.6864C9.41161 39.4016 9.07412 39.2592 8.61358 39.2592C8.09327 39.2592 7.70655 39.4209 7.45343 39.7444C7.29082 39.9499 7.18044 40.2171 7.1223 40.5459H9.92341ZM12.519 43.9262C12.8038 44.0809 13.1518 44.1582 13.5631 44.1582C14.0764 44.1582 14.5036 44.0633 14.8446 43.8734C15.1096 43.7247 15.3487 43.5114 15.5618 43.2336V44H16.6744V40.5037C16.6744 40.2577 16.6639 40.0309 16.6428 39.8235C16.6217 39.6125 16.5602 39.4069 16.4582 39.2065C16.2719 38.8303 15.9854 38.5596 15.5987 38.3944C15.2155 38.2292 14.7707 38.1465 14.2645 38.1465C13.593 38.1465 13.0587 38.2924 12.6614 38.5842C12.2676 38.876 12.0005 39.2627 11.8598 39.7444L13.02 40.1082C13.1149 39.8164 13.2819 39.6108 13.521 39.4913C13.76 39.3717 14.0079 39.312 14.2645 39.312C14.6899 39.312 14.9922 39.4051 15.1715 39.5915C15.3208 39.7466 15.4067 39.9735 15.4293 40.2724C15.1987 40.3068 14.9739 40.34 14.7549 40.3719C14.3963 40.4211 14.0624 40.4756 13.753 40.5354C13.4471 40.5952 13.1799 40.6619 12.9514 40.7358C12.6491 40.8377 12.403 40.9696 12.2132 41.1313C12.0233 41.2895 11.8827 41.4793 11.7913 41.7008C11.6999 41.9188 11.6542 42.1649 11.6542 42.4391C11.6542 42.752 11.7262 43.0385 11.8704 43.2986C12.018 43.5588 12.2342 43.768 12.519 43.9262ZM14.5545 42.9928C14.3506 43.0947 14.1045 43.1457 13.8163 43.1457C13.6159 43.1457 13.4471 43.1141 13.31 43.0508C13.1764 42.9875 13.0745 42.9031 13.0042 42.7977C12.9338 42.6887 12.8987 42.5639 12.8987 42.4233C12.8987 42.3002 12.9251 42.193 12.9778 42.1016C13.034 42.0102 13.1131 41.9293 13.2151 41.859C13.317 41.7887 13.4419 41.7272 13.5895 41.6744C13.7407 41.6252 13.9147 41.5813 14.1116 41.5426C14.3084 41.5004 14.544 41.4565 14.8182 41.4108C14.9937 41.3815 15.1914 41.3494 15.4115 41.3144C15.409 41.4113 15.4046 41.5225 15.3983 41.6481C15.3912 41.8555 15.3543 42.0401 15.2875 42.2018C15.2453 42.3319 15.1627 42.4707 15.0397 42.6184C14.9202 42.766 14.7584 42.8908 14.5545 42.9928ZM18.8542 38.3047H17.7309V44H19.0071V41.1049C19.0071 40.8869 19.0335 40.6848 19.0862 40.4985C19.1389 40.3086 19.2198 40.1399 19.3288 39.9922C19.4413 39.8446 19.5854 39.7233 19.7612 39.6284C19.937 39.5229 20.1338 39.4614 20.3518 39.4438C20.5733 39.4262 20.7684 39.442 20.9371 39.4913V38.3047C20.7684 38.2766 20.5944 38.2696 20.4151 38.2837C20.2358 38.2942 20.06 38.3276 19.8877 38.3838C19.719 38.4366 19.5643 38.5104 19.4237 38.6053C19.2584 38.7073 19.1161 38.8374 18.9965 38.9956C18.9445 39.065 18.897 39.1379 18.8542 39.2144V38.3047ZM25.5663 41.2578V44H26.853V40.8201C26.853 40.683 26.8407 40.5055 26.8161 40.2875C26.795 40.0661 26.7457 39.8323 26.6684 39.5862C26.5911 39.3401 26.4715 39.1081 26.3098 38.8901C26.1481 38.6721 25.9301 38.4928 25.6559 38.3522C25.3817 38.2116 25.0337 38.1413 24.6118 38.1413C24.0774 38.1413 23.6274 38.259 23.2618 38.4946C23.0661 38.6188 22.8956 38.7661 22.7503 38.9366V38.3047H21.6165V44H22.9032V41.0733C22.9032 40.7252 22.9419 40.4405 23.0192 40.219C23.0966 39.994 23.1985 39.8182 23.3251 39.6916C23.4552 39.5616 23.5993 39.4702 23.7575 39.4174C23.9157 39.3647 24.0757 39.3383 24.2374 39.3383C24.5397 39.3383 24.7788 39.4034 24.9546 39.5334C25.1338 39.6635 25.2674 39.8305 25.3553 40.0344C25.4467 40.2348 25.5047 40.444 25.5294 40.6619C25.554 40.8799 25.5663 41.0785 25.5663 41.2578Z" fill="currentColor"/>
</svg>
