<svg width="73" height="73" viewBox="0 0 73 73" fill="none" xmlns="http://www.w3.org/2000/svg">
<path d="M73 36.5C73 56.6584 56.6584 73 36.5 73C16.3416 73 0 56.6584 0 36.5C0 16.3416 16.3416 0 36.5 0C56.6584 0 73 16.3416 73 36.5Z" fill="white"/>
<path d="M45.75 38.25H38.25V45.75C38.25 46.4404 37.6904 47 37 47C36.3096 47 35.75 46.4404 35.75 45.75V38.25H28.25C27.5596 38.25 27 37.6904 27 37C27 36.3096 27.5596 35.75 28.25 35.75H35.75V28.25C35.75 27.5596 36.3096 27 37 27C37.6904 27 38.25 27.5596 38.25 28.25V35.75H45.75C46.4404 35.75 47 36.3096 47 37C47 37.6904 46.4404 38.25 45.75 38.25Z" fill="#31D66C"/>
</svg>
