<svg width="32" height="44" viewBox="0 0 32 44" fill="none" xmlns="http://www.w3.org/2000/svg">
<path d="M0.738281 43V35.4063H3.87594C3.94977 35.4063 4.04469 35.4098 4.16071 35.4169C4.27672 35.4204 4.38395 35.4309 4.48238 35.4485C4.92183 35.5153 5.28394 35.6612 5.5687 35.8862C5.85698 36.1112 6.06967 36.396 6.20678 36.7405C6.3474 37.0815 6.41771 37.4612 6.41771 37.8795C6.41771 38.2944 6.3474 38.6741 6.20678 39.0186C6.06616 39.3596 5.85171 39.6426 5.56343 39.8676C5.27866 40.0926 4.91832 40.2385 4.48238 40.3053C4.38395 40.3194 4.27496 40.3299 4.15543 40.3369C4.03942 40.344 3.94626 40.3475 3.87594 40.3475H2.00917V43H0.738281ZM2.00917 39.161H3.82321C3.89352 39.161 3.97262 39.1575 4.06051 39.1504C4.1484 39.1434 4.22926 39.1293 4.30309 39.1082C4.51402 39.0555 4.67926 38.9623 4.79879 38.8288C4.92183 38.6952 5.00796 38.544 5.05718 38.3752C5.10992 38.2065 5.13628 38.0413 5.13628 37.8795C5.13628 37.7178 5.10992 37.5526 5.05718 37.3839C5.00796 37.2116 4.92183 37.0587 4.79879 36.9251C4.67926 36.7915 4.51402 36.6983 4.30309 36.6456C4.22926 36.6245 4.1484 36.6122 4.06051 36.6087C3.97262 36.6016 3.89352 36.5981 3.82321 36.5981H2.00917V39.161Z" fill="currentColor"/>
<path d="M7.1578 43V37.3047H8.28103V38.6917L8.14392 38.5124C8.21423 38.3225 8.3074 38.1502 8.42341 37.9956C8.54294 37.8374 8.68532 37.7073 8.85056 37.6053C8.99118 37.5104 9.14587 37.4366 9.31461 37.3839C9.48688 37.3276 9.66266 37.2942 9.84195 37.2837C10.0212 37.2696 10.1953 37.2766 10.364 37.3047V38.4913C10.1953 38.442 10.0002 38.4262 9.77867 38.4438C9.56071 38.4614 9.36383 38.5229 9.18805 38.6284C9.01227 38.7233 8.86813 38.8446 8.75564 38.9922C8.64665 39.1399 8.56579 39.3086 8.51306 39.4985C8.46033 39.6848 8.43396 39.8869 8.43396 40.1049V43H7.1578Z" fill="currentColor"/>
<path d="M13.4663 43.1582C12.8968 43.1582 12.3994 43.0299 11.974 42.7732C11.5486 42.5166 11.2181 42.1633 10.9826 41.7133C10.7505 41.2598 10.6345 40.7395 10.6345 40.1524C10.6345 39.5547 10.7541 39.0309 10.9931 38.5809C11.2322 38.1309 11.5644 37.7794 11.9898 37.5262C12.4152 37.2731 12.9074 37.1465 13.4663 37.1465C14.0394 37.1465 14.5386 37.2749 14.964 37.5315C15.3894 37.7881 15.7198 38.1432 15.9554 38.5967C16.1909 39.0467 16.3087 39.5653 16.3087 40.1524C16.3087 40.743 16.1892 41.2651 15.9501 41.7186C15.7146 42.1686 15.3841 42.5219 14.9587 42.7785C14.5333 43.0316 14.0359 43.1582 13.4663 43.1582ZM13.4663 41.9664C13.9726 41.9664 14.3487 41.7977 14.5948 41.4602C14.8409 41.1227 14.964 40.6867 14.964 40.1524C14.964 39.6004 14.8392 39.161 14.5896 38.834C14.34 38.5036 13.9655 38.3383 13.4663 38.3383C13.1253 38.3383 12.8441 38.4157 12.6226 38.5704C12.4046 38.7215 12.2429 38.9342 12.1374 39.2084C12.032 39.4791 11.9792 39.7938 11.9792 40.1524C11.9792 40.7043 12.104 41.1455 12.3536 41.476C12.6068 41.8029 12.9777 41.9664 13.4663 41.9664Z" fill="currentColor"/>
<path d="M17.6499 43V37.2151C17.6499 37.071 17.6551 36.9128 17.6657 36.7405C17.6762 36.5647 17.7061 36.3907 17.7553 36.2184C17.8045 36.0462 17.8942 35.8897 18.0243 35.7491C18.186 35.5698 18.36 35.4468 18.5463 35.38C18.7362 35.3097 18.9225 35.271 19.1053 35.264C19.2881 35.2534 19.4481 35.2481 19.5852 35.2481H20.2971V36.2817H19.6379C19.3953 36.2817 19.2143 36.3432 19.0948 36.4663C18.9787 36.5858 18.9207 36.744 18.9207 36.9409V43H17.6499ZM16.7323 38.3014V37.3047H20.2971V38.3014H16.7323ZM21.4045 36.4399V35.2745H22.6754V36.4399H21.4045ZM21.4045 43V37.3047H22.6754V43H21.4045Z" fill="currentColor"/>
<path d="M24.0499 43V35.2481H25.3208V43H24.0499Z" fill="currentColor"/>
<path d="M29.1733 43.1582C28.5967 43.1582 28.0905 43.0334 27.6545 42.7838C27.2186 42.5342 26.8776 42.1879 26.6315 41.7449C26.3889 41.302 26.2676 40.7922 26.2676 40.2157C26.2676 39.5934 26.3872 39.0538 26.6262 38.5967C26.8653 38.1362 27.1975 37.7794 27.6229 37.5262C28.0483 37.2731 28.5405 37.1465 29.0994 37.1465C29.6901 37.1465 30.191 37.2854 30.6024 37.5631C31.0172 37.8374 31.3248 38.2258 31.5252 38.7286C31.7256 39.2313 31.8012 39.8237 31.752 40.5057H30.4916V40.0416C30.4881 39.4229 30.3791 38.9711 30.1647 38.6864C29.9502 38.4016 29.6127 38.2592 29.1522 38.2592C28.6319 38.2592 28.2452 38.421 27.992 38.7444C27.7389 39.0643 27.6123 39.5336 27.6123 40.1524C27.6123 40.7289 27.7389 41.1754 27.992 41.4918C28.2452 41.8082 28.6143 41.9664 29.0994 41.9664C29.4123 41.9664 29.6813 41.8979 29.9063 41.7608C30.1348 41.6201 30.3106 41.418 30.4336 41.1543L31.6887 41.534C31.4707 42.0473 31.1332 42.4463 30.6762 42.7311C30.2227 43.0158 29.7217 43.1582 29.1733 43.1582ZM27.2116 40.5057V39.5459H31.1297V40.5057H27.2116Z" fill="currentColor"/>
<path d="M16 14C17.3845 14 18.7379 13.5895 19.889 12.8203C21.0401 12.0511 21.9374 10.9579 22.4672 9.67879C22.997 8.3997 23.1356 6.99224 22.8655 5.63437C22.5954 4.2765 21.9287 3.02922 20.9498 2.05026C19.9708 1.07129 18.7235 0.404603 17.3656 0.134506C16.0078 -0.13559 14.6003 0.00303298 13.3212 0.532846C12.0421 1.06266 10.9489 1.95987 10.1797 3.11101C9.41055 4.26216 9.00001 5.61553 9.00001 7C9.00186 8.85595 9.73995 10.6353 11.0523 11.9477C12.3647 13.2601 14.1441 13.9981 16 14ZM16 2.33334C16.923 2.33334 17.8252 2.60703 18.5927 3.11981C19.3601 3.63259 19.9582 4.36142 20.3114 5.21415C20.6647 6.06687 20.7571 7.00518 20.577 7.91042C20.3969 8.81567 19.9525 9.64719 19.2998 10.2998C18.6472 10.9525 17.8157 11.3969 16.9104 11.577C16.0052 11.7571 15.0669 11.6646 14.2142 11.3114C13.3614 10.9582 12.6326 10.3601 12.1198 9.59266C11.607 8.82523 11.3333 7.92298 11.3333 7C11.3333 5.76233 11.825 4.57534 12.7002 3.70017C13.5753 2.825 14.7623 2.33334 16 2.33334Z" fill="currentColor"/>
<path d="M16 16.3333C13.2162 16.3364 10.5473 17.4437 8.5788 19.4121C6.61033 21.3806 5.5031 24.0495 5.50001 26.8333C5.50001 27.1428 5.62292 27.4395 5.84172 27.6583C6.06051 27.8771 6.35725 28 6.66667 28C6.97609 28 7.27284 27.8771 7.49163 27.6583C7.71042 27.4395 7.83334 27.1428 7.83334 26.8333C7.83334 24.6674 8.69375 22.5902 10.2253 21.0586C11.7568 19.5271 13.8341 18.6667 16 18.6667C18.1659 18.6667 20.2432 19.5271 21.7747 21.0586C23.3063 22.5902 24.1667 24.6674 24.1667 26.8333C24.1667 27.1428 24.2896 27.4395 24.5084 27.6583C24.7272 27.8771 25.0239 28 25.3333 28C25.6428 28 25.9395 27.8771 26.1583 27.6583C26.3771 27.4395 26.5 27.1428 26.5 26.8333C26.4969 24.0495 25.3897 21.3806 23.4212 19.4121C21.4528 17.4437 18.7838 16.3364 16 16.3333Z" fill="currentColor"/>
</svg>
