<svg width="151" height="80" viewBox="0 0 151 80" fill="none" xmlns="http://www.w3.org/2000/svg">
<path d="M17.6313 64.1845C15.8604 62.6964 14.7346 60.4657 14.7346 57.9716C14.7346 55.4776 15.8604 53.2469 17.6313 51.7588C19.0796 50.3577 20.5279 49.6026 22.2262 48.9567C24.3599 48.0639 26.8586 48.0845 29.0759 49.2264C31.276 50.3596 32.7381 52.3596 33.2609 54.5942C33.2679 54.6242 33.2519 54.6552 33.2234 54.6669C31.1006 55.5389 28.6233 55.51 26.4232 54.3768C24.2059 53.2348 22.7383 51.2124 22.2262 48.9567V48.9415C21.952 47.4263 21.9329 45.7198 22.2262 44.2081C22.7383 41.9525 24.2059 39.9301 26.4232 38.7882C28.6233 37.655 31.1006 37.626 33.2234 38.498C33.2519 38.5097 33.2679 38.5407 33.2609 38.5707C32.7381 40.8054 31.276 42.8053 29.0759 43.9385C26.8586 45.0805 24.3599 45.101 22.2262 44.2081C20.5672 43.6103 19.0796 42.8072 17.6313 41.4062C15.8604 39.9181 14.7346 37.6873 14.7346 35.1933C14.7346 32.7185 15.8432 30.5029 17.5904 29.015C17.6138 28.995 17.6487 28.995 17.6721 29.015C19.4193 30.5029 20.5279 32.7185 20.5279 35.1933C20.5279 37.6866 19.4026 39.9169 17.6327 41.405C17.6318 41.4058 17.6308 41.4066 17.6299 41.4075C16.4604 42.562 14.9292 43.4955 13.0363 44.2081C10.9026 45.101 8.40388 45.0805 6.18664 43.9385C3.98649 42.8053 2.52442 40.8054 2.00164 38.5707C1.99464 38.5407 2.01058 38.5097 2.0391 38.498C4.16196 37.626 6.63919 37.655 8.83933 38.7882C11.0558 39.9298 12.5232 41.9511 13.0357 44.2058C13.0361 44.2074 13.0364 44.209 13.0367 44.2106C13.2978 45.7876 13.2976 47.3645 13.0363 48.9415V48.9567C12.5242 51.2124 11.0566 53.2348 8.83933 54.3768C6.63919 55.51 4.16196 55.5389 2.0391 54.6669C2.01058 54.6552 1.99464 54.6242 2.00164 54.5942C2.52442 52.3596 3.98649 50.3596 6.18664 49.2264C8.40388 48.0845 10.9026 48.0639 13.0363 48.9567C14.7633 49.7115 16.2943 50.6462 17.6313 51.7588C19.4021 53.2469 20.5279 55.4776 20.5279 57.9716C20.5279 60.4657 19.4021 62.6964 17.6313 64.1845Z" stroke="#33D76D" stroke-width="3.05593" stroke-linecap="round" stroke-linejoin="round"/>
<path d="M52.504 41.5237C50.6652 41.5237 49.1232 41.0873 47.8779 40.2144C46.6327 39.3416 45.6959 38.1546 45.0674 36.6533C44.439 35.1404 44.1248 33.4471 44.1248 31.5734C44.1248 29.6764 44.439 27.9773 45.0674 26.476C45.6959 24.9747 46.6152 23.7935 47.8256 22.9323C49.0475 22.0595 50.5546 21.623 52.3469 21.623C54.1274 21.623 55.6695 22.0595 56.9729 22.9323C58.288 23.7935 59.3063 24.9747 60.0278 26.476C60.7494 27.9657 61.1101 29.6648 61.1101 31.5734C61.1101 33.4587 60.7552 35.152 60.0453 36.6533C59.3354 38.1546 58.3345 39.3416 57.0427 40.2144C55.7509 41.0873 54.238 41.5237 52.504 41.5237ZM43.409 49.3792V22.1467H47.1273V35.3789H47.651V49.3792H43.409ZM51.8581 37.7531C52.952 37.7531 53.854 37.4796 54.5639 36.9326C55.2738 36.3856 55.7975 35.6466 56.135 34.7156C56.4841 33.7729 56.6587 32.7255 56.6587 31.5734C56.6587 30.4329 56.4841 29.3971 56.135 28.4661C55.7858 27.5234 55.2447 26.7786 54.5115 26.2316C53.7783 25.673 52.8473 25.3937 51.7184 25.3937C50.6477 25.3937 49.7749 25.6555 49.0999 26.1792C48.4249 26.6913 47.9245 27.4129 47.5986 28.3439C47.2844 29.2633 47.1273 30.3398 47.1273 31.5734C47.1273 32.7953 47.2844 33.8718 47.5986 34.8029C47.9245 35.7339 48.4307 36.4613 49.1174 36.985C49.8156 37.497 50.7292 37.7531 51.8581 37.7531ZM64.2597 41V15.3386H68.4668V41H64.2597ZM77.9204 41.5237C76.5588 41.5237 75.4066 41.2677 74.464 40.7556C73.5213 40.2319 72.8056 39.5395 72.3168 38.6783C71.8396 37.8171 71.6011 36.8686 71.6011 35.8328C71.6011 34.9251 71.7524 34.1104 72.0549 33.3889C72.3575 32.6557 72.823 32.0272 73.4515 31.5035C74.0799 30.9682 74.8946 30.5318 75.8954 30.1943C76.6519 29.9499 77.5364 29.7288 78.5488 29.5309C79.573 29.3331 80.6786 29.1527 81.8656 28.9898C83.0643 28.8152 84.3154 28.629 85.6188 28.4312L84.1175 29.2865C84.1292 27.9831 83.8382 27.023 83.2447 26.4062C82.6512 25.7894 81.6503 25.481 80.2421 25.481C79.3926 25.481 78.5721 25.6788 77.7808 26.0745C76.9894 26.4702 76.4366 27.151 76.1224 28.1169L72.2819 26.9124C72.7474 25.3181 73.6319 24.0379 74.9353 23.072C76.2504 22.106 78.0193 21.623 80.2421 21.623C81.918 21.623 83.3902 21.8965 84.6587 22.4435C85.9389 22.9905 86.8873 23.8866 87.5041 25.1318C87.8416 25.7952 88.0453 26.476 88.1151 27.1743C88.185 27.8609 88.2199 28.6116 88.2199 29.4262V41H84.5365V36.9151L85.1475 37.5785C84.2979 38.9401 83.3029 39.941 82.1624 40.581C81.0335 41.2095 79.6195 41.5237 77.9204 41.5237ZM78.7583 38.172C79.7126 38.172 80.5273 38.0033 81.2023 37.6658C81.8773 37.3283 82.4126 36.9151 82.8083 36.4263C83.2156 35.9376 83.4891 35.4779 83.6288 35.0473C83.8499 34.5119 83.9721 33.9009 83.9953 33.2143C84.0303 32.516 84.0477 31.9516 84.0477 31.521L85.3395 31.9051C84.071 32.1029 82.9829 32.2775 82.0751 32.4288C81.1674 32.58 80.3876 32.7255 79.7359 32.8652C79.0842 32.9932 78.5081 33.1387 78.0077 33.3016C77.5189 33.4762 77.1058 33.6798 76.7683 33.9126C76.4308 34.1453 76.1689 34.413 75.9827 34.7156C75.8081 35.0182 75.7209 35.3731 75.7209 35.7804C75.7209 36.246 75.8372 36.6591 76.07 37.0199C76.3027 37.369 76.6402 37.6483 77.0825 37.8578C77.5364 38.0673 78.095 38.172 78.7583 38.172ZM104.757 41V31.9225C104.757 31.329 104.717 30.6714 104.635 29.9499C104.554 29.2284 104.362 28.5359 104.059 27.8726C103.768 27.1976 103.326 26.6448 102.732 26.2142C102.151 25.7836 101.359 25.5683 100.358 25.5683C99.8229 25.5683 99.2934 25.6555 98.7697 25.8301C98.246 26.0047 97.7689 26.3073 97.3383 26.7379C96.9193 27.1568 96.5818 27.7387 96.3258 28.4835C96.0698 29.2167 95.9417 30.1594 95.9417 31.3115L93.4454 30.2467C93.4454 28.6406 93.7538 27.1859 94.3706 25.8825C94.9991 24.579 95.9185 23.5433 97.1288 22.7752C98.3391 21.9955 99.8288 21.6056 101.598 21.6056C102.994 21.6056 104.146 21.8383 105.054 22.3039C105.962 22.7694 106.683 23.3629 107.219 24.0844C107.754 24.806 108.15 25.5741 108.406 26.3887C108.662 27.2034 108.825 27.9773 108.895 28.7105C108.976 29.432 109.017 30.0197 109.017 30.4736V41H104.757ZM91.6823 41V22.1467H95.4355V27.9947H95.9417V41H91.6823ZM120.789 41.5237C118.881 41.5237 117.205 41.1106 115.762 40.2843C114.319 39.458 113.19 38.3117 112.375 36.8453C111.572 35.3789 111.171 33.6915 111.171 31.7829C111.171 29.723 111.566 27.9366 112.358 26.4236C113.149 24.8991 114.249 23.7179 115.657 22.8799C117.065 22.042 118.694 21.623 120.545 21.623C122.5 21.623 124.158 22.0827 125.52 23.0021C126.893 23.9099 127.912 25.1959 128.575 26.8601C129.238 28.5243 129.488 30.4852 129.326 32.743H125.153V31.2068C125.142 29.1585 124.781 27.6631 124.071 26.7204C123.361 25.7777 122.244 25.3064 120.719 25.3064C118.997 25.3064 117.717 25.8418 116.879 26.9124C116.041 27.9715 115.622 29.5251 115.622 31.5734C115.622 33.482 116.041 34.96 116.879 36.0074C117.717 37.0548 118.939 37.5785 120.545 37.5785C121.581 37.5785 122.471 37.3515 123.216 36.8977C123.972 36.4322 124.554 35.763 124.961 34.8901L129.116 36.147C128.394 37.8462 127.277 39.167 125.764 40.1097C124.263 41.0524 122.605 41.5237 120.789 41.5237ZM114.295 32.743V29.5659H127.266V32.743H114.295ZM143.223 41C141.978 41.2328 140.756 41.3317 139.557 41.2968C138.37 41.2735 137.305 41.0582 136.363 40.6509C135.42 40.2319 134.704 39.5744 134.216 38.6783C133.785 37.8636 133.558 37.0315 133.535 36.1819C133.511 35.3324 133.5 34.3723 133.5 33.3016V16.9097H137.689V33.0572C137.689 33.8137 137.695 34.477 137.707 35.0473C137.73 35.6175 137.852 36.083 138.074 36.4438C138.492 37.1421 139.162 37.5319 140.081 37.6134C141 37.6949 142.048 37.6483 143.223 37.4737V41ZM130.078 25.4461V22.1467H143.223V25.4461H130.078ZM51.3693 79.9029C50.3219 79.9029 49.3152 79.74 48.3493 79.4141C47.395 79.0883 46.5338 78.6169 45.7657 78.0001C44.9976 77.395 44.3691 76.6618 43.8804 75.8006L47.7557 73.8804C48.1165 74.567 48.6228 75.0732 49.2745 75.3991C49.9378 75.7366 50.6419 75.9053 51.3867 75.9053C52.2596 75.9053 53.0393 75.7482 53.7259 75.434C54.4126 75.1314 54.9421 74.6775 55.3145 74.0724C55.6986 73.4789 55.8789 72.734 55.8557 71.8379V66.4787H56.3794V52.1467H60.0627V71.9077C60.0627 72.3849 60.0395 72.8388 59.9929 73.2694C59.958 73.7116 59.894 74.1422 59.8009 74.5612C59.5216 75.7831 58.9862 76.784 58.1949 77.5637C57.4035 78.3551 56.4201 78.9428 55.2447 79.3269C54.0809 79.7109 52.7891 79.9029 51.3693 79.9029ZM51.0027 71.5237C49.2687 71.5237 47.7557 71.0873 46.464 70.2144C45.1722 69.3416 44.1713 68.1546 43.4614 66.6533C42.7515 65.152 42.3965 63.4587 42.3965 61.5734C42.3965 59.6648 42.7515 57.9657 43.4614 56.476C44.1829 54.9747 45.2012 53.7935 46.5163 52.9323C47.8314 52.0595 49.3792 51.623 51.1598 51.623C52.952 51.623 54.4533 52.0595 55.6636 52.9323C56.8856 53.7935 57.8108 54.9747 58.4393 56.476C59.0677 57.9773 59.3819 59.6764 59.3819 61.5734C59.3819 63.4471 59.0677 65.1404 58.4393 66.6533C57.8108 68.1546 56.874 69.3416 55.6287 70.2144C54.3835 71.0873 52.8415 71.5237 51.0027 71.5237ZM51.6486 67.7531C52.7775 67.7531 53.6852 67.497 54.3718 66.985C55.0701 66.4613 55.5764 65.7339 55.8906 64.8029C56.2164 63.8718 56.3794 62.7953 56.3794 61.5734C56.3794 60.3398 56.2164 59.2633 55.8906 58.3439C55.5764 57.4129 55.0818 56.6913 54.4068 56.1792C53.7318 55.6555 52.8589 55.3937 51.7883 55.3937C50.6594 55.3937 49.7284 55.673 48.9952 56.2316C48.262 56.7786 47.7208 57.5234 47.3717 58.4661C47.0226 59.3971 46.848 60.4329 46.848 61.5734C46.848 62.7255 47.0167 63.7729 47.3542 64.7156C47.7034 65.6466 48.2329 66.3856 48.9428 66.9326C49.6527 67.4796 50.5546 67.7531 51.6486 67.7531ZM63.9106 71V52.1467H67.6289V56.7379L67.175 56.1443C67.4077 55.5159 67.7161 54.9456 68.1002 54.4336C68.4959 53.9099 68.9672 53.4793 69.5142 53.1418C69.9797 52.8276 70.4918 52.5832 71.0504 52.4086C71.6206 52.2224 72.2025 52.1118 72.796 52.0769C73.3896 52.0304 73.9656 52.0536 74.5243 52.1467V56.0745C73.9656 55.9116 73.3197 55.8592 72.5866 55.9174C71.865 55.9756 71.2133 56.1792 70.6314 56.5284C70.0495 56.8426 69.5724 57.2441 69.2 57.7329C68.8392 58.2217 68.5715 58.7803 68.3969 59.4087C68.2224 60.0255 68.1351 60.6947 68.1351 61.4163V71H63.9106ZM85.0384 71.5237C83.1298 71.5237 81.4539 71.1106 80.0108 70.2843C78.5678 69.458 77.4389 68.3117 76.6242 66.8453C75.8212 65.3789 75.4197 63.6915 75.4197 61.7829C75.4197 59.723 75.8154 57.9366 76.6068 56.4236C77.3982 54.8991 78.4979 53.7179 79.9061 52.8799C81.3143 52.042 82.9436 51.623 84.794 51.623C86.7491 51.623 88.4075 52.0827 89.7692 53.0021C91.1424 53.9099 92.1607 55.1959 92.8241 56.8601C93.4874 58.5243 93.7376 60.4852 93.5747 62.743H89.4026V61.2068C89.3909 59.1585 89.0302 57.6631 88.3202 56.7204C87.6103 55.7777 86.4931 55.3064 84.9686 55.3064C83.2462 55.3064 81.966 55.8418 81.1281 56.9124C80.2902 57.9715 79.8712 59.5251 79.8712 61.5734C79.8712 63.482 80.2902 64.96 81.1281 66.0074C81.966 67.0548 83.188 67.5785 84.794 67.5785C85.8298 67.5785 86.72 67.3515 87.4649 66.8977C88.2213 66.4322 88.8032 65.763 89.2105 64.8901L93.3652 66.147C92.6437 67.8462 91.5265 69.167 90.0135 70.1097C88.5123 71.0524 86.8539 71.5237 85.0384 71.5237ZM78.5445 62.743V59.5659H91.5148V62.743H78.5445ZM104.994 71.5237C103.085 71.5237 101.409 71.1106 99.9661 70.2843C98.523 69.458 97.3941 68.3117 96.5795 66.8453C95.7764 65.3789 95.3749 63.6915 95.3749 61.7829C95.3749 59.723 95.7706 57.9366 96.562 56.4236C97.3534 54.8991 98.4531 53.7179 99.8613 52.8799C101.269 52.042 102.899 51.623 104.749 51.623C106.704 51.623 108.363 52.0827 109.724 53.0021C111.098 53.9099 112.116 55.1959 112.779 56.8601C113.443 58.5243 113.693 60.4852 113.53 62.743H109.358V61.2068C109.346 59.1585 108.985 57.6631 108.275 56.7204C107.566 55.7777 106.448 55.3064 104.924 55.3064C103.201 55.3064 101.921 55.8418 101.083 56.9124C100.245 57.9715 99.8264 59.5251 99.8264 61.5734C99.8264 63.482 100.245 64.96 101.083 66.0074C101.921 67.0548 103.143 67.5785 104.749 67.5785C105.785 67.5785 106.675 67.3515 107.42 66.8977C108.177 66.4322 108.758 65.763 109.166 64.8901L113.32 66.147C112.599 67.8462 111.482 69.167 109.969 70.1097C108.467 71.0524 106.809 71.5237 104.994 71.5237ZM98.4997 62.743V59.5659H111.47V62.743H98.4997ZM128.906 71V61.9225C128.906 61.329 128.866 60.6714 128.784 59.9499C128.703 59.2284 128.511 58.5359 128.208 57.8726C127.917 57.1976 127.475 56.6448 126.881 56.2142C126.299 55.7836 125.508 55.5683 124.507 55.5683C123.972 55.5683 123.442 55.6555 122.919 55.8301C122.395 56.0047 121.918 56.3073 121.487 56.7379C121.068 57.1568 120.731 57.7387 120.475 58.4835C120.219 59.2167 120.091 60.1594 120.091 61.3115L117.594 60.2467C117.594 58.6406 117.903 57.1859 118.52 55.8825C119.148 54.579 120.067 53.5433 121.278 52.7752C122.488 51.9955 123.978 51.6056 125.747 51.6056C127.143 51.6056 128.295 51.8383 129.203 52.3039C130.111 52.7694 130.832 53.3629 131.368 54.0844C131.903 54.806 132.299 55.5741 132.555 56.3887C132.811 57.2034 132.974 57.9773 133.044 58.7105C133.125 59.432 133.166 60.0197 133.166 60.4736V71H128.906ZM115.831 71V52.1467H119.584V57.9947H120.091V71H115.831Z" fill="white"/>
</svg>
